<mxfile host="app.diagrams.net" modified="2024-05-05T09:36:06.148Z" agent="Mozilla/5.0 (Macintosh; Intel Mac OS X 10_15_7) AppleWebKit/537.36 (KHTML, like Gecko) Chrome/124.0.0.0 Safari/537.36" version="24.2.5" etag="ik4qgsVw3W-xoZbgyok7" type="github">
  <diagram name="第 1 页" id="0xXtAVuOOvrXYQEo_7SS">
    <mxGraphModel>
      <root>
        <mxCell id="0" />
        <mxCell id="1" parent="0" />
      </root>
    </mxGraphModel>
  </diagram>
</mxfile>
